<?xml version="1.0"?>
<svg width="100" height="90" xmlns="http://www.w3.org/2000/svg" xmlns:svg="http://www.w3.org/2000/svg" enable-background="new 0 0 100 100" version="1.1" xml:space="preserve">
 <g class="layer">
  <title>Layer 1</title>
  <g id="svg_7" transform="translate(5 0) translate(0 -3.12) matrix(1.3674 0 0 1.29706 -23.8552 -17.6799)">
   <path d="m20.67,36.42l0,42.45l13.21,-13.21l0,-29.24l-13.21,0zm-1.08,46.16c-0.14,0 -0.29,-0.03 -0.42,-0.09c-0.41,-0.16 -0.67,-0.56 -0.67,-1l0,-46.15c0,-0.6 0.49,-1.09 1.09,-1.09l15.38,0c0.6,0 1.08,0.49 1.08,1.09l0,30.77c0,0.29 -0.11,0.56 -0.31,0.77l-15.39,15.38c-0.2,0.21 -0.48,0.32 -0.76,0.32" id="svg_1"/>
   <path d="m22.21,34.26l43.08,0l13.21,-13.21l-43.08,0l-13.21,13.21zm43.53,2.17l-46.15,0c-0.44,0 -0.84,-0.26 -1.01,-0.67c-0.17,-0.4 -0.07,-0.87 0.24,-1.18l15.38,-15.38c0.2,-0.21 0.48,-0.32 0.77,-0.32l46.15,0c0.44,0 0.84,0.27 1,0.67c0.17,0.41 0.08,0.87 -0.23,1.18l-15.39,15.39c-0.2,0.2 -0.47,0.31 -0.76,0.31" id="svg_2"/>
   <path d="m22.21,80.41l43.08,0l13.21,-13.21l-43.08,0l-13.21,13.21zm43.53,2.18l-46.15,0c-0.44,0 -0.84,-0.27 -1.01,-0.67c-0.17,-0.41 -0.07,-0.88 0.24,-1.19l15.38,-15.38c0.2,-0.2 0.48,-0.32 0.77,-0.32l46.15,0c0.44,0 0.84,0.27 1,0.67c0.17,0.41 0.08,0.87 -0.23,1.19l-15.39,15.38c-0.2,0.2 -0.47,0.32 -0.76,0.32" id="svg_3"/>
   <path d="m66.82,65.03l13.21,0l0,-42.44l-13.21,13.21l0,29.23zm14.3,2.17l-15.38,0c-0.6,0 -1.09,-0.48 -1.09,-1.08l0,-30.77c0,-0.29 0.12,-0.56 0.32,-0.77l15.38,-15.38c0.32,-0.31 0.78,-0.41 1.19,-0.23c0.4,0.16 0.67,0.56 0.67,1l0,46.15c-0.01,0.6 -0.49,1.08 -1.09,1.08" id="svg_4"/>
  </g>
 </g>
</svg>